<?xml version="1.0" encoding="UTF-8"?>
<svg width="90px" height="90px" viewBox="0 0 90 90" version="1.1" xmlns="http://www.w3.org/2000/svg" xmlns:xlink="http://www.w3.org/1999/xlink">
    <g id="clear" stroke="none" stroke-width="1" fill="none" fill-rule="evenodd">
        <g id="noun_Close_1130065" transform="translate(0.000000, 0.000000)" fill="#CDCDCD" fill-rule="nonzero">
            <path d="M45,0 C20.1,0 0,20.1 0,45 C0,69.9 20.1,90 45,90 C69.9,90 90,69.9 90,45 C90,20.1 69.9,0 45,0 Z M58,64 C53.7,59.7 49.3,55.3 45,51 C40.7,55.3 36.3,59.7 32,64 C28.1,67.9 22.2,61.9 26,58 C30.3,53.7 34.7,49.3 39,45 C34.7,40.7 30.3,36.3 26,32 C22.1,28.1 28.1,22.2 32,26 C36.3,30.3 40.7,34.7 45,39 C49.3,34.7 53.7,30.3 58,26 C61.9,22.1 67.8,28.1 64,32 C59.7,36.3 55.3,40.7 51,45 C55.3,49.3 59.7,53.7 64,58 C67.8,61.8 61.8,67.8 58,64 Z" id="Shape"></path>
        </g>
    </g>
</svg>