<?xml version="1.0" encoding="UTF-8"?>
<svg width="643px" height="885px" viewBox="0 0 643 885" version="1.1" xmlns="http://www.w3.org/2000/svg" xmlns:xlink="http://www.w3.org/1999/xlink">
    <g id="quantapastamadre-white-logo" stroke="none" stroke-width="1" fill="none" fill-rule="evenodd">
        <g id="quantapastamadre-white-logo" transform="translate(18.000000, 34.000000)" fill-rule="nonzero">
            <g id="prova">
                <path d="M600.471762,369.496034 C588.359958,348.101613 456.741768,272.732686 303,272 C149.258232,272.781531 17.6400417,348.101613 5.52823792,369.496034 C-0.47882607,379.997861 0.00955311626,388.692397 0.00955311626,397.53347 C0.00955311626,401.783047 0.00955311626,677.614761 0.00955311626,682.841251 C0.00955311626,693.831536 0.351418546,708.24102 4.01426244,717.472859 C20.5214789,758.942865 149.258232,819.071932 303,820 C456.741768,819.071932 585.478521,758.942865 601.985738,717.472859 C605.648581,708.192174 605.990447,693.831536 605.990447,682.841251 C605.990447,677.565915 605.990447,401.734201 605.990447,397.53347 C605.990447,388.692397 606.478826,379.997861 600.471762,369.496034 Z" id="Path" fill="#FEBD2D"></path>
                <path d="M573.120752,385.164074 C558.311955,363.974923 517.795478,304.850358 487.689145,250.16868 C485.440945,246.116377 486.613919,241.038792 490.328337,238.255885 L505.625873,226.977789 C517.453361,217.945548 519.897057,201.052815 511.050878,189.042375 C502.204699,177.031934 485.343197,174.346673 473.173592,182.988332 L470.143409,185.234186 C465.207144,188.895906 458.120426,186.79652 455.969973,181.035415 C428.209589,106.971034 394.53546,0 303.190109,0 C195.178753,0 167.809359,149.642272 135.552574,217.506141 C108.720794,273.945445 60.188994,346.301024 38.4889749,377.645343 C32.2331135,386.677584 34.6279354,399.078608 43.7673579,405.230297 C78.2723433,428.323541 167.125124,477 303.190109,477 C451.571321,477 543.845276,419.096008 570.677056,399.61566 C575.271205,396.295701 576.395305,389.851075 573.120752,385.164074 Z" id="Path" fill="#FBFBFB"></path>
                <path d="M470.757384,217.506141 C438.478843,149.642272 411.09099,0 303.006785,0 C194.92258,0 167.534727,149.642272 135.256186,217.506141 C105.960965,279.120676 50.7940037,359.629683 32.8940855,385.164074 C29.6173245,389.851075 30.6932759,396.246878 35.3394295,399.61566 C62.1893068,419.096008 154.47659,477 303.006785,477 C451.53698,477 543.824263,419.096008 570.674141,399.61566 C575.271388,396.246878 576.396246,389.851075 573.119485,385.164074 C555.219567,359.629683 500.052606,279.120676 470.757384,217.506141 Z" id="Path" fill="#FBFBFB"></path>
                <path d="M497.437096,184.365368 C512.559423,201.988791 500.461561,216.919746 488.65639,225.976228 L488.65639,225.976228 L466.607061,238.557393 C466.021681,238.997979 465.826554,239.830196 466.168026,240.466597 C495.046793,296.518873 509.144704,314.093341 575,390.951046 C575,390.951046 575,390.951046 575,391 C574.853655,389.188704 574.268274,387.377408 573.146295,385.810881 C558.36544,364.564866 517.92541,305.28163 487.875883,250.453204 C485.631924,246.390026 486.802685,241.298815 490.510094,238.508439 L505.778767,227.200076 L505.778767,227.200076 C517.583938,218.143595 520.023023,201.205528 511.193536,189.162856 C505.339731,181.183361 496.022427,177.315999 486.851467,178.099262 C491.046693,179.029388 494.705321,181.183361 497.437096,184.365368 Z" id="Path" fill="#FEBD2D"></path>
                <path d="M437.991526,165.52042 C443.376349,179.171589 452.187877,185.509632 460.999406,185.997174 C461.048359,186.045928 458.06223,185.509632 455.859348,180.780477 C428.103033,106.820395 394.37446,0 302.881423,0 C300.189011,0 297.594506,0.0975083479 295,0.292525044 C380.080203,5.94800922 411.067411,93.8517848 437.991526,165.52042 Z" id="Path" fill="#FEBD2D"></path>
                <path d="M205.894471,187.306779 C221.048405,204.767989 212.249346,218.34893 197.095413,228.534636 L197.095413,228.534636 L175,241 C199.539596,238.235308 214.253576,229.74722 214.253576,229.74722 L214.253576,229.74722 C226.083421,220.774098 228.527604,203.991935 219.679662,192.060108 C213.813623,184.154061 204.476845,180.322295 195.286718,181.098349 C199.490712,182.019913 203.156986,184.154061 205.894471,187.306779 Z" id="Path" fill="#FEBD2D"></path>
            </g>
            <g id="Group" transform="translate(253.000000, 109.000000)" fill="#2F2F2F">
                <path d="M8,30.5 C3.58333333,30.5 0,27.0740493 0,22.8424622 L0,8.15753776 C0,3.92993879 3.58333333,0.5 8,0.5 C12.4208341,0.5 16,3.92993879 16,8.15753776 L16,22.8424622 C16,27.0740493 12.4208341,30.5 8,30.5 Z" id="Path"></path>
                <path d="M122,30.5 C117.579167,30.5 114,27.0740493 114,22.8424622 L114,8.15753776 C114,3.92993879 117.579167,0.5 122,0.5 C126.416667,0.5 130,3.92993879 130,8.15753776 L130,22.8424622 C130,27.0740493 126.416667,30.5 122,30.5 Z" id="Path"></path>
                <path d="M66.0020303,79.5 C58.8003985,79.5 51.6028282,77.2129137 46.37931,72.6350633 C43.2801302,69.925123 43.1988935,65.4575819 46.1924651,62.6520394 C49.1860377,59.8501738 54.1211654,59.7729573 57.2203452,62.4865752 C61.5705699,66.2922575 70.4334917,66.2922575 74.7796548,62.4865752 C77.8747719,59.7729573 82.8139623,59.8501738 85.8075349,62.6520394 C88.8011065,65.4575819 88.7198698,69.9287998 85.62069,72.6350633 C80.3971707,77.2092369 73.1955389,79.5 66.0020303,79.5 Z" id="Path"></path>
            </g>
            <path d="M260,169.5 C260,178.059644 253.060515,185 244.498055,185 C235.939486,185 229,178.059644 229,169.5 C229,160.936465 235.939486,154 244.498055,154 C253.060515,154 260,160.936465 260,169.5 Z" id="Path" fill="#FEBD2D"></path>
            <path d="M418,169.5 C418,178.059644 411.060514,185 402.501945,185 C393.939485,185 387,178.059644 387,169.5 C387,160.936465 393.939485,154 402.501945,154 C411.060514,154 418,160.936465 418,169.5 Z" id="Path" fill="#FEBD2D"></path>
            <g id="Group-3" transform="translate(525.000000, 477.000000)" fill="#F1E4B4">
                <path d="M40.6199376,215.050287 C40.5556079,217.498249 33.1392522,230.842976 0,246.711865 L7.71962665,264 C40.3074769,248.388289 59,230.53817 59,215.050287 L59,196 L40.6199376,196 L40.6199376,215.050287 Z" id="Path"></path>
                <polygon id="Path" points="41 0 59 0 59 196 41 196"></polygon>
            </g>
        </g>
    </g>
</svg>