<?xml version="1.0" encoding="UTF-8"?>
<svg width="61px" height="62px" viewBox="0 0 61 62" version="1.1" xmlns="http://www.w3.org/2000/svg" xmlns:xlink="http://www.w3.org/1999/xlink">
    <!-- Generator: Sketch 53.1 (72631) - https://sketchapp.com -->
    <title>Path</title>
    <desc>Created with Sketch.</desc>
    <g id="Page-1" stroke="none" stroke-width="1" fill="none" fill-rule="evenodd">
        <g id="iPhone-8-Copy-3" transform="translate(-104.000000, -524.000000)" fill="#FFFFFF" fill-rule="nonzero">
            <g id="close" transform="translate(104.000000, 524.000000)">
                <path d="M1.2,59.9 C2.7,61.4 5,61.4 6.5,59.9 L30.1,36.3 L53.7,59.9 C55.1,61.5 57.4,61.6 59,60.3 C60.6,59 60.7,56.6 59.4,55 C59.3,54.9 59.2,54.7 59,54.6 L35.4,31 L59,7.4 C60.5,6 60.6,3.6 59.2,2.1 C57.8,0.6 55.4,0.5 53.9,1.9 C53.8,2 53.8,2 53.7,2.1 L30.1,25.7 L6.5,2.1 C5,0.7 2.6,0.8 1.2,2.3 C-0.1,3.7 -0.1,6 1.2,7.4 L24.8,31 L1.2,54.6 C-0.2,56.1 -0.2,58.4 1.2,59.9 Z" id="Path"></path>
            </g>
        </g>
    </g>
</svg>