<svg xmlns="http://www.w3.org/2000/svg" xmlns:xlink="http://www.w3.org/1999/xlink" version="1.1" x="0px" y="0px" viewBox="0 0 100 125" style="enable-background:new 0 0 100 100;" xml:space="preserve"><path d="M21.2,78.9c1.5,1.5,3.8,1.5,5.3,0l23.6-23.6l23.6,23.6c1.4,1.6,3.7,1.7,5.3,0.4s1.7-3.7,0.4-5.3c-0.1-0.1-0.2-0.3-0.4-0.4  L55.4,50L79,26.4c1.5-1.4,1.6-3.8,0.2-5.3c-1.4-1.5-3.8-1.6-5.3-0.2c-0.1,0.1-0.1,0.1-0.2,0.2L50.1,44.7L26.5,21.1  c-1.5-1.4-3.9-1.3-5.3,0.2c-1.3,1.4-1.3,3.7,0,5.1L44.8,50L21.2,73.6C19.8,75.1,19.8,77.4,21.2,78.9z"/><text x="0" y="115" fill="#000000" font-size="5px" font-weight="bold" font-family="'Helvetica Neue', Helvetica, Arial-Unicode, Arial, Sans-serif">Created by Pawel Rak</text><text x="0" y="120" fill="#000000" font-size="5px" font-weight="bold" font-family="'Helvetica Neue', Helvetica, Arial-Unicode, Arial, Sans-serif">from the Noun Project</text></svg>