<?xml version="1.0" encoding="UTF-8"?>
<svg width="546px" height="809px" viewBox="0 0 546 809" version="1.1" xmlns="http://www.w3.org/2000/svg" xmlns:xlink="http://www.w3.org/1999/xlink">
    <!-- Generator: Sketch 53.1 (72631) - https://sketchapp.com -->
    <title>Group</title>
    <desc>Created with Sketch.</desc>
    <g id="Page-1" stroke="none" stroke-width="1" fill="none" fill-rule="evenodd">
        <g id="Group" transform="translate(8.000000, 0.000000)">
            <path d="M0.5,463.5 L0.5,689.5 L0.5,463.5 Z" id="Line--Oval-Copy-2-∩-Rectangle--Line-Copy--Rectangle--Oval-Copy-2-∩-Rectangle---Line--Line-Copy---Line-Copy" stroke="#D5C06E" stroke-width="16" stroke-linecap="square"></path>
            <path d="M530,463.5 L530,689.5 L530,463.5 Z" id="Line-Copy---Line---Line--Oval-Copy-2-∩-Rectangle--Line-Copy-Copy" stroke="#D5C06E" stroke-width="16" stroke-linecap="square" transform="translate(530.000000, 576.500000) scale(-1, 1) translate(-530.000000, -576.500000) "></path>
            <path d="M8,687 L522,687 C522,708.482668 522,721.805584 522,726.96875 C522,732.131916 511.32839,740.775785 489.98517,752.900358 C487.757149,757.897883 479.935269,762.03917 466.519531,765.324219 C450.468663,769.25452 438.835061,782.590264 429.580078,782.121094 C407.914992,781.022808 393.140434,792.60863 381.841797,792.438819 C357.787987,792.077306 340.94639,801.158713 328.451172,801.000001 C308.344088,800.744604 291.766838,801.18265 279.587891,801.000001 C251.171592,800.573839 232.597938,801.624013 214.648437,801.000001 C194.153922,800.287511 168.385228,793.325864 150.585937,792.438819 C115.242476,790.677442 87.4481896,770.830884 66.734375,767.939453 C42.1675668,764.510184 22.5894418,745.959778 8,712.288234 L8,687 Z" id="Rectangle-Copy-2" fill="#D5C06E"></path>
            <path d="M529.862201,690.000001 C529.953834,691.162105 530,692.328866 530,693.500001 C530,752.870612 411.355459,801.000001 265,801.000001 C118.644541,801.000001 0,752.870612 0,693.500001 C0,692.328866 0.0461656502,691.162104 0.137798989,690 L529.862201,690.000001 Z" id="Oval-Copy-2-∩-Rectangle---Line---Line--Oval-Copy-2-∩-Rectangle--Line-Copy-Copy" stroke="#D5C06E" stroke-width="16"></path>
            <path d="M8,494 L522,494 C522,621.961392 522,690.146939 522,698.556641 C522,706.966342 513.990885,708.268226 497.972656,702.462291 C492.932665,699.089907 483.704801,700.079039 470.289062,705.429688 C454.238194,711.831314 445.606545,706.193866 436.351562,705.429688 C414.686476,703.640813 400.597453,702.738878 389.298816,702.462291 C365.245006,701.873464 341.153733,708.926977 328.658515,708.668468 C308.551431,708.25248 288.209409,708.965964 276.030462,708.668468 C247.614164,707.974341 229.076173,709.684852 211.126672,708.668468 C190.632157,707.507974 165.098635,703.9071 147.299344,702.462291 C111.955883,699.593382 84.2919396,716.148981 63.578125,711.439453 C39.0113168,705.853902 20.4852751,701.559631 8,698.556641 L8,494 Z" id="Rectangle-Copy" fill="#D5C06E"></path>
            <ellipse id="Oval-Copy-2" stroke="#D5C06E" stroke-width="16" fill="#F1E4B4" cx="265" cy="456.5" rx="265" ry="107.5"></ellipse>
            <g id="ghost-copy" transform="translate(73.000000, 0.000000)" fill-rule="nonzero">
                <path d="M362.660156,292.519531 L404.089844,292.519531 C422.941406,292.519531 438.226562,307.800781 438.226562,326.65625 C438.226562,345.507812 422.945312,360.792969 404.089844,360.792969 L362.660156,360.792969 L362.660156,292.519531 Z" id="Path" fill="#F1E4B4"></path>
                <path d="M438.226562,326.648438 C438.226562,336.078125 434.410156,344.609375 428.234375,350.792969 C422.050781,356.976562 413.519531,360.796875 404.089844,360.796875 L372.25,360.796875 C381.675781,360.796875 390.207031,356.976562 396.394531,350.792969 C402.570312,344.609375 406.386719,336.078125 406.386719,326.648438 C406.386719,307.796875 391.105469,292.515625 372.25,292.515625 L404.09375,292.515625 C422.945312,292.515625 438.226562,307.796875 438.226562,326.648438 L438.226562,326.648438 Z" id="Path" fill="#D5C06E"></path>
                <path d="M207.863281,0.00390625 C118.3125,0.00390625 45.71875,72.597656 45.71875,162.144531 L45.71875,353.589844 C45.71875,392.34375 32.453125,429.929688 8.125,460.097656 C-8.695312,480.957031 5.62638684,495.546875 32.4193548,495.546875 L89.746094,512 L89.738281,511.980469 L233.160156,511.980469 C308.738281,511.980469 370.003906,450.714844 370.003906,375.136719 L370.003906,162.144531 C370.003906,72.597656 297.410156,0.00390625 207.863281,0.00390625 Z" id="Path" fill="#F1E4B4"></path>
                <path d="M370.007812,162.148438 L370.007812,375.140625 C370.007812,450.710938 308.734375,511.984375 233.15625,511.984375 L207.152344,511.984375 C282.730469,511.984375 343.992188,450.710938 343.992188,375.140625 L343.992188,162.148438 C343.992188,76.976562 278.324219,7.140625 194.863281,0.515625 C199.15625,0.175781 203.488281,0 207.859375,0 C297.414062,0 370.007812,72.59375 370.007812,162.148438 Z" id="Path" fill="#D5C06E"></path>
                <path d="M142.054688,292.519531 L210.261719,292.519531 C229.117188,292.519531 244.398438,307.800781 244.398438,326.65625 C244.398438,345.507812 229.117188,360.792969 210.261719,360.792969 L142.054688,360.792969 C137.933594,360.792969 134.59375,357.453125 134.59375,353.332031 L134.59375,299.976562 C134.59375,295.855469 137.933594,292.519531 142.054688,292.519531 Z" id="Path" fill="#F1E4B4"></path>
                <path d="M244.394531,326.648438 C244.394531,336.078125 240.578125,344.609375 234.390625,350.792969 C228.214844,356.976562 219.6875,360.796875 210.257812,360.796875 L178.417969,360.796875 C187.84375,360.796875 196.375,356.976562 202.550781,350.792969 C208.734375,344.609375 212.554688,336.078125 212.554688,326.648438 C212.554688,307.796875 197.273438,292.515625 178.417969,292.515625 L210.257812,292.515625 C229.113281,292.515625 244.394531,307.796875 244.394531,326.648438 L244.394531,326.648438 Z" id="Path" fill="#D5C06E"></path>
                <path d="M189.566406,184.027344 C185.425781,184.027344 182.066406,180.671875 182.066406,176.527344 L182.066406,162.144531 C182.066406,158.003906 185.425781,154.644531 189.566406,154.644531 C193.710938,154.644531 197.066406,158.003906 197.066406,162.144531 L197.066406,176.527344 C197.066406,180.671875 193.710938,184.027344 189.566406,184.027344 Z" id="Path" fill="#9119FA"></path>
                <path d="M299.230469,184.027344 C295.085938,184.027344 291.730469,180.671875 291.730469,176.527344 L291.730469,162.144531 C291.730469,158.003906 295.085938,154.644531 299.230469,154.644531 C303.371094,154.644531 306.730469,158.003906 306.730469,162.144531 L306.730469,176.527344 C306.730469,180.671875 303.371094,184.027344 299.230469,184.027344 Z" id="Path" fill="#9119FA"></path>
                <path d="M185.882812,213.683594 C185.882812,222.273438 178.917969,229.238281 170.324219,229.238281 C161.734375,229.238281 154.769531,222.273438 154.769531,213.683594 C154.769531,205.089844 161.734375,198.128906 170.324219,198.128906 C178.917969,198.128906 185.882812,205.089844 185.882812,213.683594 Z" id="Path" fill="#D5C06E"></path>
                <path d="M345.386719,213.683594 C345.386719,222.273438 338.421875,229.238281 329.832031,229.238281 C321.238281,229.238281 314.273438,222.273438 314.273438,213.683594 C314.273438,205.089844 321.238281,198.128906 329.832031,198.128906 C338.421875,198.128906 345.386719,205.089844 345.386719,213.683594 Z" id="Path" fill="#D5C06E"></path>
                <path d="M245.476562,231.726562 C238.550781,231.726562 231.628906,229.296875 226.605469,224.433594 C223.625,221.554688 223.546875,216.808594 226.425781,213.828125 C229.304688,210.851562 234.050781,210.769531 237.03125,213.652344 C241.214844,217.695312 249.738281,217.695312 253.917969,213.652344 C256.894531,210.769531 261.644531,210.851562 264.523438,213.828125 C267.402344,216.808594 267.324219,221.558594 264.34375,224.433594 C259.320312,229.292969 252.394531,231.726562 245.476562,231.726562 Z" id="Path" fill="#9119FA"></path>
            </g>
            <path d="M499.17757,690.809077 C499.118692,692.969043 492.330841,704.743802 462,718.745763 L469.065421,734 C498.891589,720.224961 516,704.474856 516,690.809077 L516,674 L499.17757,674 L499.17757,690.809077 Z" id="Path" fill="#F1E4B4" fill-rule="nonzero"></path>
            <polygon id="Path" fill="#F1E4B4" fill-rule="nonzero" points="499 563 516 563 516 674 499 674"></polygon>
        </g>
    </g>
</svg>