<?xml version="1.0" encoding="UTF-8"?>
<svg width="48px" height="48px" viewBox="0 0 48 48" version="1.1" xmlns="http://www.w3.org/2000/svg" xmlns:xlink="http://www.w3.org/1999/xlink">
    <!-- Generator: Sketch 53.1 (72631) - https://sketchapp.com -->
    <title>Shape</title>
    <desc>Created with Sketch.</desc>
    <g id="Page-1" stroke="none" stroke-width="1" fill="none" fill-rule="evenodd">
        <g id="iPhone-8-Copy-6" transform="translate(-16.000000, -16.000000)" fill="#000000" fill-rule="nonzero">
            <g id="noun_what_1446406" transform="translate(16.000000, 16.000000)">
                <path d="M24,0 C10.7667755,0 0,10.7663755 0,24 C0,37.2336245 10.7667755,48 24,48 C37.2332245,48 48,37.2336245 48,24 C48,10.7663755 37.2332245,0 24,0 Z M24,45.0982075 C12.3663402,45.0982075 2.90170475,35.6340114 2.90170475,24 C2.90170475,12.3659886 12.3663402,2.90179246 24,2.90179246 C35.6336598,2.90179246 45.0982952,12.3659886 45.0982952,24 C45.0982952,35.6340114 35.6336598,45.0982075 24,45.0982075 Z M23.7620602,11.3285978 C17.3195502,12.1657649 15.6191513,16.8173382 15.6198767,19.1598102 L18.5215814,19.1721428 C18.5295611,18.7375994 18.7566195,14.905057 24.1356547,14.2064504 C27.6438157,13.7501436 29.4254625,15.358462 29.9274574,17.0146601 C30.3561843,18.4263821 29.9354371,20.273373 28.029017,21.2179065 C22.4976424,23.9586495 22.4976424,28.6522988 22.4976424,31.4568812 L25.3993471,31.4568812 C25.3993471,28.2286371 25.6873413,25.6162984 29.3166485,23.8179125 C32.2379398,22.3699181 33.6307581,19.225826 32.7043888,16.1716894 C31.8955386,13.506393 29.0656511,10.6386966 23.7620602,11.3285978 Z M22.5012695,37.2611915 L25.4029742,37.2611915 L25.4029742,34.0184385 L22.5012695,34.0184385 L22.5012695,37.2611915 Z" id="Shape"></path>
            </g>
        </g>
    </g>
</svg>