<?xml version="1.0" encoding="UTF-8"?>
<svg width="29px" height="27px" viewBox="0 0 29 27" version="1.1" xmlns="http://www.w3.org/2000/svg" xmlns:xlink="http://www.w3.org/1999/xlink">
    <!-- Generator: Sketch 53.1 (72631) - https://sketchapp.com -->
    <title>noun_reset_2068171</title>
    <desc>Created with Sketch.</desc>
    <g id="Page-1" stroke="none" stroke-width="1" fill="none" fill-rule="evenodd">
        <g id="iPhone-8-Copy" transform="translate(-280.000000, -336.000000)" fill="#000000" fill-rule="nonzero">
            <g id="noun_reset_2068171" transform="translate(280.000000, 336.000000)">
                <path d="M15.5077979,27 C11.916956,27.0000229 8.47388547,25.571175 5.93930682,23.0291495 C3.40472816,20.487124 1.98726183,17.0411543 2.00008627,13.4526013 C2.00008627,12.920073 2.43205831,12.4883736 2.96492282,12.4883736 C3.49778733,12.4883736 3.92975937,12.920073 3.92975937,13.4526013 C3.93923312,19.2424244 8.22943631,24.133984 13.9717094,24.9021282 C19.7139826,25.6702724 25.1404338,22.0785102 26.6732413,16.4949981 C28.2060488,10.911486 25.3733022,5.05523747 20.0427163,2.78745267 C14.7121303,0.519667871 8.52484937,2.53853686 5.56033313,7.51295884 C5.41210238,7.86061876 5.07431545,8.0896937 4.69628484,8.0989253 C4.31825424,8.1081569 3.96967487,7.89584319 3.80462984,7.55583354 C3.63958482,7.2158239 3.68850236,6.81080356 3.92975937,6.51980434 C7.30115916,0.943489969 14.1768102,-1.43070204 20.2737425,0.876156305 C26.3706749,3.18301465 29.9489708,9.5126015 28.7796438,15.9221004 C27.6103167,22.3315994 22.0270645,26.9918937 15.5077979,27 L15.5077979,27 Z" id="Path"></path>
                <path d="M5.01690269,14.9999831 C4.746987,15.0015351 4.48755587,14.8961523 4.29591704,14.7071137 L2.98595721,13.4548444 L1.67599737,14.7374105 C1.27309812,15.0805493 0.672513123,15.0574787 0.297428922,14.6844549 C-0.0776552793,14.3114311 -0.100853273,13.7141452 0.244180802,13.3134591 L2.27512629,11.29367 C2.67119869,10.90211 3.31087045,10.90211 3.70694285,11.29367 L5.73788834,13.3134591 C6.00309896,13.6052961 6.07378473,14.0237261 5.91902827,14.3857312 C5.7642718,14.7477363 5.41223764,14.9874342 5.01690269,14.9999831 Z" id="Path"></path>
            </g>
        </g>
    </g>
</svg>